<svg width="133" height="115" viewBox="0 0 133 115" fill="none" xmlns="http://www.w3.org/2000/svg">
<path d="M9.19018 19.4948C-2.03618 33.0944 -2.23079 70.7329 9.19019 81.2606C16.5363 89.7323 21.445 105.526 46.0743 105.838C75.3914 106.209 71.6366 125.889 111.239 105.838C143.843 89.3308 132.51 41.9138 122.693 25.5132C112.876 9.11259 95.2258 17.3936 73.6128 5.39747C51.9998 -6.59869 20.4165 5.8953 9.19018 19.4948Z" fill="#E7FEE6"/>
<path d="M67.379 29.238C68.0121 28.6409 68.5882 28.0558 69.2063 27.5217C74.4348 23.0104 82.5228 24.7777 85.2758 31.0249C87.0041 34.9451 86.131 39.4445 82.9804 42.6341C80.3459 45.3016 77.6769 47.9375 75.0229 50.5855C72.9 52.7054 70.7771 54.8238 68.6512 56.9407C67.6805 57.9069 67.0879 57.9054 66.1127 56.9347C61.3328 52.1683 56.5424 47.4139 51.782 42.6296C47.9623 38.7918 47.5557 32.8927 50.7843 28.8435C54.4075 24.3066 61.1618 23.6975 65.5561 27.5217C66.1727 28.0588 66.7488 28.6424 67.379 29.238ZM67.3264 54.2342C72.1273 49.4768 76.9207 44.8305 81.5806 40.0551C83.2999 38.2937 83.762 35.9623 83.2159 33.5513C81.9152 27.8128 75.0694 25.8069 70.6946 29.8592C69.9429 30.5553 69.2393 31.3039 68.5027 32.0166C67.6985 32.7952 67.0444 32.7877 66.2297 32.0001C65.3851 31.1824 64.5914 30.3077 63.6973 29.5501C60.3321 26.6996 55.2882 27.2892 52.7542 30.7938C50.5713 33.8109 50.9614 37.9202 53.7399 40.7107C58.1147 45.105 62.5135 49.4753 66.9034 53.8547C67.0414 53.9927 67.1929 54.1157 67.3264 54.2342Z" fill="#34AA2F"/>
<path d="M43.469 52.6305C42.5748 52.6305 41.7361 52.6305 40.8285 52.6305C40.812 52.2794 40.785 51.9643 40.7835 51.6478C40.7805 47.273 40.7955 42.8966 40.764 38.5218C40.7595 37.8377 40.6694 37.104 40.4099 36.4799C39.6523 34.6526 37.5414 34.4035 36.4236 36.0358C36.0126 36.636 35.744 37.4671 35.741 38.1947C35.696 47.2715 35.7065 56.3467 35.732 65.4234C35.7335 65.8029 35.9406 66.2395 36.1791 66.5531C39.9628 71.5265 43.736 76.5074 47.5872 81.4284C48.786 82.9602 49.6066 84.5865 49.6891 86.5218C49.7552 88.0611 49.7026 89.6049 49.7026 91.2072C48.8835 91.1562 48.0448 91.1037 47.1372 91.0482C47.1222 90.8531 47.0997 90.6656 47.0937 90.4766C47.0561 89.2538 47.0561 88.0296 46.9796 86.8084C46.9046 85.5901 46.4965 84.5099 45.7224 83.5123C41.6941 78.3168 37.7199 73.0808 33.7051 67.8733C33.225 67.2492 32.9985 66.6251 33 65.8224C33.024 56.5957 33.018 47.3705 33.0105 38.1437C33.009 36.1379 33.7186 34.4635 35.3269 33.2588C38.392 30.9619 42.5583 32.7007 43.3384 36.5789C43.427 37.017 43.49 37.4701 43.4915 37.9157C43.5035 42.6656 43.499 47.417 43.499 52.1669C43.499 52.2929 43.4825 52.4174 43.469 52.6305Z" fill="#34AA2F"/>
<path d="M87.6388 91.0466C86.7371 91.1051 85.9179 91.1591 85.0043 91.2192C85.0043 89.7369 84.9398 88.2756 85.0193 86.8218C85.1333 84.7454 85.9434 82.9706 87.2562 81.3083C91.0984 76.4444 94.8281 71.492 98.5773 66.5545C98.8399 66.2095 99.0289 65.7084 99.0304 65.2778C99.0559 56.3511 99.0604 47.4244 99.0289 38.4978C99.0259 37.7746 98.8534 36.996 98.5458 36.3434C98.1167 35.4327 97.3051 34.8956 96.2399 34.9826C95.1957 35.0681 94.5551 35.7432 94.258 36.6779C94.0645 37.284 93.9955 37.9517 93.9925 38.5923C93.9699 42.9431 93.9804 47.2939 93.9804 51.6447C93.9804 51.9418 93.9804 52.2403 93.9804 52.6019C93.0668 52.6019 92.2116 52.6019 91.3039 52.6019C91.2889 52.4069 91.2634 52.2133 91.2634 52.0213C91.2619 47.3449 91.2334 42.67 91.2739 37.9937C91.2949 35.6232 92.2296 33.6894 94.471 32.6512C97.3246 31.3294 100.721 33.1673 101.548 36.4364C101.687 36.987 101.738 37.5721 101.738 38.1407C101.75 47.4664 101.74 56.7937 101.759 66.1194C101.761 66.8051 101.488 67.3032 101.098 67.8103C97.2601 72.8047 93.4884 77.8531 89.5651 82.7801C88.1759 84.5249 87.6478 86.3973 87.6388 88.5232C87.6358 89.3453 87.6388 90.163 87.6388 91.0466Z" fill="#34AA2F"/>
<path d="M65.4016 91.2117C64.4654 91.2117 63.6028 91.2117 62.6426 91.2117C62.6426 90.9191 62.6426 90.6521 62.6426 90.3835C62.6366 86.4828 62.5766 82.5821 62.6441 78.6828C62.6786 76.6184 61.9569 74.9081 60.5977 73.4589C59.7485 72.5542 58.8139 71.6915 57.7922 70.9924C54.9911 69.0705 52.4947 66.8201 50.1977 64.3326C48.858 62.8804 47.5272 61.4221 46.1845 59.9728C45.3713 59.0937 44.4232 58.4215 43.2319 58.1515C41.5876 57.7794 40.5749 58.6796 40.755 60.3434C40.893 61.6216 41.5381 62.6418 42.3843 63.56C44.4862 65.8389 46.5911 68.1163 48.693 70.3938C48.912 70.6308 49.1295 70.8694 49.4086 71.1724C48.75 71.78 48.1153 72.3651 47.4417 72.9863C47.2782 72.8437 47.1222 72.7312 46.9931 72.5917C44.7187 70.1312 42.4413 67.6738 40.1804 65.2013C39.0791 63.9966 38.3485 62.6013 38.0755 60.9705C37.4603 57.2933 40.2074 54.6693 43.838 55.4825C45.6114 55.8801 47.0126 56.8702 48.2519 58.1635C50.8113 60.8325 53.3618 63.512 55.9918 66.1105C56.943 67.0511 58.1327 67.7458 59.1739 68.6009C60.3486 69.5656 61.5714 70.4988 62.6096 71.6C64.4759 73.5804 65.4421 75.9538 65.4061 78.7338C65.3566 82.6091 65.3986 86.4843 65.4016 90.3595C65.4016 90.6296 65.4016 90.8996 65.4016 91.2117Z" fill="#34AA2F"/>
<path d="M87.3207 72.9818C86.6621 72.3757 86.0395 71.8025 85.3643 71.1814C86.0034 70.4808 86.6186 69.7997 87.2412 69.1245C88.9695 67.2492 90.7038 65.3798 92.4292 63.503C93.2558 62.6028 93.8769 61.5931 94.006 60.3419C94.1785 58.6676 93.1763 57.7794 91.5245 58.153C90.2793 58.4335 89.3161 59.1642 88.4714 60.0853C87.0356 61.6516 85.6044 63.2239 84.1506 64.7737C81.9722 67.0947 79.5973 69.1831 76.9688 70.9984C75.9096 71.729 74.9434 72.6322 74.0657 73.5774C72.7485 74.9951 72.0838 76.683 72.1168 78.6858C72.1799 82.5851 72.1243 86.4858 72.1168 90.3865C72.1168 90.6551 72.1168 90.9221 72.1168 91.2237C71.1732 91.2237 70.3285 91.2237 69.3578 91.2237C69.3578 90.9341 69.3578 90.6476 69.3578 90.361C69.3608 86.5113 69.4073 82.6601 69.3518 78.8104C69.3113 76.0618 70.2385 73.7109 72.0463 71.7095C72.879 70.7883 73.7762 69.8687 74.8023 69.1861C78.4825 66.7376 81.5611 63.6515 84.4822 60.3809C85.2653 59.5047 86.053 58.6316 86.8811 57.7989C88.2224 56.4532 89.7947 55.5335 91.7375 55.382C94.9556 55.1299 97.1971 57.5439 96.729 60.7545C96.5039 62.3013 95.9113 63.7055 94.8701 64.8607C92.4622 67.5357 90.0017 70.1657 87.5622 72.8122C87.5142 72.8617 87.4452 72.8947 87.3207 72.9818Z" fill="#34AA2F"/>
</svg>
