<svg width="42" height="42" viewBox="0 0 42 42" fill="none" xmlns="http://www.w3.org/2000/svg">
<path d="M21 40.091C31.5439 40.091 40.0909 31.544 40.0909 21.0001C40.0909 10.4562 31.5439 1.90918 21 1.90918C10.4561 1.90918 1.90909 10.4562 1.90909 21.0001C1.90909 31.544 10.4561 40.091 21 40.091Z" stroke="#34AA2F" stroke-width="2.7" stroke-linecap="round" stroke-linejoin="round"/>
<path d="M27.6818 28.6365C27.935 28.6365 28.1778 28.5359 28.3568 28.3569C28.5358 28.1779 28.6364 27.9351 28.6364 27.682C28.6364 27.4288 28.5358 27.186 28.3568 27.007C28.1778 26.828 27.935 26.7274 27.6818 26.7274C27.4287 26.7274 27.1859 26.828 27.0069 27.007C26.8279 27.186 26.7273 27.4288 26.7273 27.682C26.7273 27.9351 26.8279 28.1779 27.0069 28.3569C27.1859 28.5359 27.4287 28.6365 27.6818 28.6365ZM14.3182 15.2729C14.5714 15.2729 14.8141 15.1723 14.9932 14.9933C15.1722 14.8143 15.2727 14.5715 15.2727 14.3183C15.2727 14.0652 15.1722 13.8224 14.9932 13.6433C14.8141 13.4643 14.5714 13.3638 14.3182 13.3638C14.065 13.3638 13.8222 13.4643 13.6432 13.6433C13.4642 13.8224 13.3636 14.0652 13.3636 14.3183C13.3636 14.5715 13.4642 14.8143 13.6432 14.9933C13.8222 15.1723 14.065 15.2729 14.3182 15.2729Z" fill="#34AA2F" stroke="#34AA2F" stroke-width="2.7" stroke-linecap="round" stroke-linejoin="round"/>
<path d="M28.6364 13.3638L13.3636 28.6365" stroke="#34AA2F" stroke-width="2.7" stroke-linecap="round" stroke-linejoin="round"/>
</svg>
