<svg width="44" height="30" viewBox="0 0 44 30" fill="none" xmlns="http://www.w3.org/2000/svg">
<path d="M1.3125 0.875C0.587627 0.875 0 1.46263 0 2.1875C0 2.91237 0.587626 3.5 1.3125 3.5H26.9375V23.1875H18.8577C18.2724 20.9313 16.2432 19.25 13.8125 19.25C11.3818 19.25 9.35262 20.9313 8.76725 23.1875H7.25V17.9375C7.25 17.2126 6.66237 16.625 5.9375 16.625C5.21263 16.625 4.625 17.2126 4.625 17.9375V25.8125H8.76725C9.35262 28.0687 11.3818 29.75 13.8125 29.75C16.2432 29.75 18.2724 28.0687 18.8577 25.8125H29.7673C30.3526 28.0687 32.3818 29.75 34.8125 29.75C37.2432 29.75 39.2724 28.0687 39.8577 25.8125H44V15.1077L43.9173 14.9017L41.2923 7.02669L41.0075 6.125H29.5625V0.875H1.3125ZM3.625 6.125C2.90013 6.125 2.3125 6.71263 2.3125 7.4375C2.3125 8.16237 2.90013 8.75 3.625 8.75H13.8125C14.5374 8.75 15.125 8.16237 15.125 7.4375C15.125 6.71263 14.5374 6.125 13.8125 6.125H3.625ZM29.5625 8.75H39.1188L41.375 15.4766V23.1875H39.8577C39.2724 20.9313 37.2432 19.25 34.8125 19.25C32.3818 19.25 30.3526 20.9313 29.7673 23.1875H29.5625V8.75ZM5.9375 11.375C5.21263 11.375 4.625 11.9626 4.625 12.6875C4.625 13.4124 5.21263 14 5.9375 14H11.1875C11.9124 14 12.5 13.4124 12.5 12.6875C12.5 11.9626 11.9124 11.375 11.1875 11.375H5.9375ZM13.8125 21.875C15.2786 21.875 16.4375 23.0339 16.4375 24.5C16.4375 25.9661 15.2786 27.125 13.8125 27.125C12.3464 27.125 11.1875 25.9661 11.1875 24.5C11.1875 23.0339 12.3464 21.875 13.8125 21.875ZM34.8125 21.875C36.2786 21.875 37.4375 23.0339 37.4375 24.5C37.4375 25.9661 36.2786 27.125 34.8125 27.125C33.3464 27.125 32.1875 25.9661 32.1875 24.5C32.1875 23.0339 33.3464 21.875 34.8125 21.875Z" fill="#34AA2F"/>
</svg>
