<svg width="127" height="106" viewBox="0 0 127 106" fill="none" xmlns="http://www.w3.org/2000/svg">
<path d="M3.07668 26.5233C10.8939 -4.84677 38.0448 4.24295 52.0096 7.17977C62.2449 8.15657 82.6369 -7.30442 100.724 6.78471C112.695 16.1096 113.543 2.94413 126.063 41.7324C134.201 66.9447 78.3134 103.812 60.8921 105.232C43.4708 106.652 45.7724 95.0836 25.1868 85.2731C4.6012 75.4626 -4.74056 57.8934 3.07668 26.5233Z" fill="#E7FEE6"/>
<path d="M64.2722 83.6121C64.642 83.2654 64.8316 83.0959 65.0119 82.9171C74.5735 73.3709 84.1336 63.8247 93.6936 54.2785C97.6539 50.3229 99.4337 45.5521 99.0099 39.9738C98.4644 32.7699 92.7768 26.4689 85.619 25.1869C79.6155 24.1128 74.3947 25.7401 69.9891 29.9453C68.5222 31.346 67.1153 32.8115 65.676 34.2415C64.7576 35.1553 64.0796 35.1553 63.1689 34.2507C61.5647 32.6574 60.0022 31.0224 58.3565 29.4738C50.1108 21.7182 36.5489 23.9972 31.5655 34.0196C29.0398 39.1001 29.1646 44.2608 31.5716 49.3814C31.6256 49.4969 31.6903 49.6094 31.7473 49.7235C32.2589 50.7359 32.0894 51.5711 31.2927 51.9686C30.5068 52.36 29.7625 52.0318 29.2525 51.041C23.1195 39.1094 29.6947 24.686 43.138 22.3607C49.7749 21.2127 55.6429 23.0958 60.5816 27.7032C61.8745 28.9098 63.0641 30.2258 64.3508 31.5402C64.6328 31.2752 64.8316 31.0887 65.0303 30.9007C66.7316 29.3012 68.3095 27.5414 70.1525 26.1268C80.4969 18.1925 95.6506 22.1481 100.388 34.149C103.6 42.2884 101.975 49.7882 95.8772 56.0152C85.9041 66.2009 75.7323 76.1924 65.6421 86.2626C64.7869 87.1162 64.0595 87.1024 63.1904 86.2348C55.8632 78.923 48.5344 71.6127 41.2257 64.2824C40.8913 63.9465 40.54 63.3979 40.577 62.9818C40.6155 62.5427 41.0315 62.0341 41.4245 61.7568C41.9438 61.39 42.5216 61.6474 42.9562 62.0711C44.095 63.1837 45.2168 64.3148 46.3447 65.4397C52.1618 71.2475 57.9789 77.0538 63.7883 82.8678C63.9825 83.0666 64.0996 83.3424 64.2722 83.6121Z" fill="#34AA2F"/>
<path d="M65.1998 47.1793C64.7499 48.6386 64.2968 50.0964 63.8484 51.5556C62.5232 55.8657 61.1903 60.1742 59.882 64.4904C59.6694 65.19 59.3381 65.734 58.5691 65.8079C57.7586 65.8865 57.324 65.3749 56.9927 64.6984C55.1914 61.0125 53.3761 57.3342 51.5639 53.6544C51.453 53.4294 51.3266 53.2137 51.1571 52.8978C50.0477 54.3987 48.9659 55.7963 47.9597 57.2464C47.4234 58.0184 46.8024 58.3405 45.8439 58.3358C39.1423 58.3004 32.4423 58.3127 25.7406 58.3235C25.0179 58.3251 24.4139 58.1787 24.1103 57.4436C23.7574 56.5915 24.286 55.6669 25.1998 55.5544C25.4787 55.5205 25.7638 55.5328 26.0458 55.5328C32.3097 55.5313 38.5753 55.5236 44.8392 55.5452C45.471 55.5467 45.8655 55.3618 46.2369 54.8394C47.4835 53.0812 48.7825 51.3599 50.0692 49.6294C51.0092 48.3659 52.1526 48.4707 52.8537 49.8899C54.4548 53.1305 56.0481 56.3757 57.6446 59.6194C57.7678 59.8691 57.8988 60.1141 58.1099 60.5255C58.2656 60.0925 58.3827 59.8044 58.4736 59.5085C60.2272 53.8024 61.9808 48.0947 63.7221 42.3839C63.9409 41.6643 64.2722 41.1064 65.1105 41.071C65.9888 41.0355 66.3648 41.5903 66.6299 42.3284C68.123 46.5029 69.6409 50.6681 71.1217 54.8456C71.3221 55.4126 71.5794 55.6423 72.2143 55.6268C74.216 55.5791 76.2192 55.6083 78.2225 55.6099C78.4274 55.6099 78.6354 55.5991 78.8373 55.6222C79.6617 55.7162 80.1918 56.2725 80.1902 57.0276C80.1887 57.7842 79.6509 58.4113 78.8327 58.4206C76.0096 58.4529 73.1851 58.4514 70.3605 58.4206C69.5946 58.4113 69.2248 57.8489 68.9813 57.1663C67.8611 54.0289 66.7223 50.8992 65.5897 47.7664C65.5204 47.5754 65.4479 47.3858 65.3771 47.1963C65.317 47.1901 65.2584 47.184 65.1998 47.1793Z" fill="#34AA2F"/>
</svg>
