<svg width="126" height="100" viewBox="0 0 126 100" fill="none" xmlns="http://www.w3.org/2000/svg">
<path d="M14.4552 82.1508C-11.7245 59.1389 3.54696 31.9531 14.4552 21.2368C21.3004 12.7765 34.2028 -4.1441 59.5926 0.932069C84.9825 6.00824 106.423 -4.1441 118.271 5.44422C130.12 15.0326 126.908 41.9095 118.271 57.898C109.634 73.8865 102.473 77.6387 81.0329 90.6112C59.5926 103.584 40.6349 105.163 14.4552 82.1508Z" fill="#E7FEE6"/>
<path d="M90.5137 21.0369C89.3122 22.1529 88.2514 23.3398 86.9952 24.2637C83.4841 26.8459 79.8635 29.2819 76.3391 31.8464C73.1535 34.1641 69.9413 36.4611 66.9125 38.9739C63.579 41.7394 60.926 45.1007 59.2526 49.1551C59.2408 49.1862 59.2126 49.2098 59.1623 49.2616C59.1165 49.3074 59.0469 49.3236 58.9863 49.3C58.2391 49.0103 57.4608 48.7073 56.5642 48.3584C56.4724 48.323 56.4325 48.2151 56.4769 48.1278C57.1501 46.8404 57.7419 45.584 58.4566 44.403C61.0533 40.1165 64.6236 36.7183 68.6259 33.7946C72.5646 30.9181 76.6764 28.2797 80.6344 25.4299C82.9085 23.7921 85.0732 21.9933 87.2008 20.1663C88.534 19.0208 89.5179 17.5574 90.2533 15.9419C90.5788 15.2265 91.2106 14.8939 91.8498 15.0299C92.5304 15.1732 92.955 15.7142 93.0482 16.4444C93.4655 19.7111 93.8398 22.9851 94.3399 26.2399C95.2543 32.1819 96.1036 38.1299 95.9897 44.1606C95.8891 49.4862 95.207 54.7143 93.0364 59.6498C90.0594 66.4195 84.9282 70.916 78.1575 73.6682C73.8785 75.408 69.4056 76.348 64.8218 76.7723C58.0911 77.396 51.4773 76.7516 45.041 74.6763C39.8387 72.9972 35.4339 70.14 32.3223 65.5297C30.1325 62.2808 28.9754 58.6491 28.4117 54.806C27.737 50.2135 28.0255 45.621 28.3333 41.0196C28.4798 38.8172 28.4191 36.6 28.4147 34.3902C28.4132 33.6379 28.7653 33.0289 29.477 32.8116C30.1281 32.6135 30.8605 32.884 31.1416 33.5654C32.6197 37.1632 35.5109 39.404 38.6787 41.3315C42.2357 43.4939 45.8932 45.4894 49.4487 47.6548C53.2705 49.9814 56.681 52.7943 59.223 56.5413C61.7472 60.2617 63.0256 64.3975 63.3259 68.8569C63.3481 69.1762 63.3748 69.4955 63.4103 69.8133C63.4132 69.8369 63.4206 69.8591 63.434 69.8857C63.4828 69.9848 63.613 70.0084 63.6929 69.9345C64.1279 69.5339 64.5555 69.16 64.9506 68.755C66.3932 67.2695 67.8062 65.7559 69.2621 64.2866C69.6542 63.8905 69.6705 63.552 69.5018 63.0524C67.5029 57.1059 67.4244 51.1269 69.2592 45.1243C69.3169 44.9366 69.376 44.7489 69.4426 44.5626C69.4574 44.5212 69.5048 44.4932 69.5743 44.4193C70.32 44.6691 71.085 44.9248 71.8485 45.1864C71.9269 45.213 71.9994 45.2559 72.0808 45.3032C72.1473 45.3416 72.1784 45.4214 72.1547 45.4953C70.5449 50.5135 70.3999 55.545 71.8085 60.7968C71.844 60.9269 72.0157 60.9623 72.0985 60.8559C77.2224 54.299 81.0753 47.2351 83.8377 39.5252C84.0981 38.798 84.8897 38.4107 85.6236 38.6516L85.6502 38.6605C86.4137 38.9103 86.8206 39.7351 86.5513 40.4919C83.7711 48.3185 79.8664 55.4844 74.821 62.0739C74.7411 62.1788 74.8106 62.3311 74.9423 62.337C78.5481 62.4804 83.3879 58.349 85.742 53.0869C85.7745 53.013 85.8559 52.9746 85.9343 52.9968C86.3175 53.1076 86.7096 53.217 87.0988 53.3382C87.4982 53.4624 87.8948 53.5969 88.3313 53.7417C88.4126 53.7683 88.46 53.8541 88.4393 53.9368C88.3934 54.1172 88.3564 54.2812 88.2943 54.4364C85.7242 60.782 81.0708 64.4684 74.2587 65.3922C74.0383 65.4218 73.8089 65.5105 73.6003 65.4735C72.2997 65.2444 71.5851 66.0249 70.7684 66.8718C68.6155 69.1068 66.3577 71.2397 64.1353 73.4066L64.1279 73.414C64.2507 73.6771 64.2492 73.6727 64.3735 73.9358C65.1251 73.8545 65.8768 73.7761 66.6255 73.6712C71.0421 73.0578 75.3285 71.9891 79.3353 69.9744C86.4921 66.3737 90.601 60.4893 92.2004 52.747C93.2613 47.6105 93.396 42.4149 92.8026 37.2312C92.193 31.9055 91.3334 26.608 90.5817 21.2986C90.5743 21.2261 90.5462 21.1567 90.5137 21.0369ZM31.6254 39.5075C31.5263 39.4099 31.3576 39.4705 31.3472 39.6095C31.2599 40.7151 31.1756 41.6862 31.1105 42.6603C30.819 47.04 30.6592 51.4181 31.4967 55.7653C32.451 60.714 34.6113 64.9725 38.655 68.1386C42.0507 70.7977 45.9909 72.2078 50.156 73.0784C50.8869 73.2307 51.6252 73.3504 52.3636 73.4716C52.4612 73.2085 52.4405 73.2647 52.5381 73.0016C49.2741 71.0313 46.3416 68.6544 43.7715 65.8283C41.3139 63.1248 39.2705 60.1508 37.6444 56.8502C37.2849 56.1185 37.5971 55.2509 38.3428 54.9198C38.3517 54.9154 38.3606 54.9124 38.368 54.908C39.056 54.602 39.8683 54.8843 40.2101 55.5539C44.5527 64.0605 51.1799 70.0291 60.2913 73.5189C60.3993 73.5603 60.5147 73.479 60.5162 73.3637C60.5206 72.1162 60.5546 71.0091 60.5088 69.9035C60.2543 63.7456 58.0245 58.4717 53.4496 54.2502C51.2642 52.2341 48.8066 50.6022 46.272 49.0679C41.3301 46.0762 35.9444 43.7556 31.6254 39.5075Z" fill="#34AA2F"/>
</svg>
