<svg width="34" height="34" viewBox="0 0 34 34" fill="none" xmlns="http://www.w3.org/2000/svg">
<path fill-rule="evenodd" clip-rule="evenodd" d="M31.875 17C31.875 13.0549 30.3078 9.27139 27.5182 6.48179C24.7286 3.69218 20.9451 2.125 17 2.125C13.0549 2.125 9.27139 3.69218 6.48179 6.48179C3.69218 9.27139 2.125 13.0549 2.125 17C2.125 20.9451 3.69218 24.7286 6.48179 27.5182C9.27139 30.3078 13.0549 31.875 17 31.875C20.9451 31.875 24.7286 30.3078 27.5182 27.5182C30.3078 24.7286 31.875 20.9451 31.875 17ZM0 17C0 12.4913 1.79107 8.1673 4.97918 4.97918C8.1673 1.79107 12.4913 0 17 0C21.5087 0 25.8327 1.79107 29.0208 4.97918C32.2089 8.1673 34 12.4913 34 17C34 21.5087 32.2089 25.8327 29.0208 29.0208C25.8327 32.2089 21.5087 34 17 34C12.4913 34 8.1673 32.2089 4.97918 29.0208C1.79107 25.8327 0 21.5087 0 17ZM9.5625 18.0625C9.28071 18.0625 9.01046 17.9506 8.8112 17.7513C8.61194 17.552 8.5 17.2818 8.5 17C8.5 16.7182 8.61194 16.448 8.8112 16.2487C9.01046 16.0494 9.28071 15.9375 9.5625 15.9375H21.8726L17.3102 11.3773C17.2115 11.2785 17.1331 11.1612 17.0796 11.0321C17.0262 10.903 16.9987 10.7647 16.9987 10.625C16.9987 10.4853 17.0262 10.347 17.0796 10.2179C17.1331 10.0888 17.2115 9.97154 17.3102 9.87275C17.409 9.77396 17.5263 9.6956 17.6554 9.64214C17.7845 9.58867 17.9228 9.56116 18.0625 9.56116C18.2022 9.56116 18.3405 9.58867 18.4696 9.64214C18.5987 9.6956 18.716 9.77396 18.8148 9.87275L25.1898 16.2477C25.2887 16.3464 25.3672 16.4637 25.4208 16.5928C25.4743 16.7219 25.5019 16.8602 25.5019 17C25.5019 17.1398 25.4743 17.2781 25.4208 17.4072C25.3672 17.5363 25.2887 17.6536 25.1898 17.7523L18.8148 24.1273C18.6152 24.3268 18.3446 24.4388 18.0625 24.4388C17.7804 24.4388 17.5098 24.3268 17.3102 24.1273C17.1107 23.9277 16.9987 23.6571 16.9987 23.375C16.9987 23.0929 17.1107 22.8223 17.3102 22.6227L21.8726 18.0625H9.5625Z" fill="#34AA2F"/>
</svg>
