<svg width="160" height="155" viewBox="0 0 160 155" fill="none" xmlns="http://www.w3.org/2000/svg">
<path d="M34.7214 133.264C34.8227 133.374 34.8906 133.478 34.9251 133.576C34.9504 133.663 34.9419 133.754 34.8996 133.849C34.8481 133.933 34.7674 134.026 34.6575 134.127L25.1108 142.929C25.0109 143.021 24.9171 143.079 24.8295 143.105C24.7227 143.129 24.6221 143.12 24.5277 143.078C24.4232 143.045 24.3296 142.983 24.2467 142.894L21.1379 139.521C20.6681 139.012 20.3286 138.493 20.1192 137.965C19.8906 137.437 19.7969 136.904 19.8379 136.367C19.8598 135.829 20.006 135.306 20.2767 134.798C20.5382 134.28 20.9237 133.786 21.4333 133.316C21.9428 132.846 22.4665 132.502 23.0044 132.284C23.523 132.064 24.0511 131.965 24.5888 131.987C25.1264 132.009 25.6544 132.151 26.1728 132.412C26.6719 132.673 27.1563 133.058 27.6261 133.568L30.3065 136.475L33.8434 133.214C33.9533 133.113 34.0571 133.045 34.1547 133.011C34.2422 132.985 34.3333 132.994 34.4277 133.036C34.5129 133.068 34.6108 133.145 34.7214 133.264ZM29.4073 137.304L26.713 134.382C26.2617 133.892 25.7895 133.56 25.2965 133.386C24.7843 133.212 24.2704 133.196 23.7549 133.338C23.2202 133.48 22.7081 133.777 22.2185 134.228C21.7289 134.679 21.4018 135.156 21.2371 135.659C21.0532 136.162 21.0325 136.671 21.1751 137.186C21.3076 137.711 21.5996 138.218 22.0509 138.707L24.7314 141.615L29.4073 137.304Z" fill="white"/>
<path d="M24.2904 120.454C24.3614 120.586 24.4015 120.703 24.4108 120.806C24.4137 120.897 24.3829 120.983 24.3186 121.064C24.2477 121.133 24.1466 121.203 24.015 121.274L12.5698 127.45C12.4502 127.514 12.3448 127.548 12.2537 127.551C12.1561 127.542 12.07 127.511 11.9955 127.459C11.9024 127.401 11.8237 127.312 11.7591 127.192L9.56188 123.12C9.21987 122.486 9.00675 121.891 8.92251 121.334C8.83182 120.765 8.86082 120.233 9.00949 119.735C9.15817 119.238 9.43573 118.78 9.84218 118.36C10.2302 117.934 10.7412 117.55 11.375 117.208C11.7458 117.008 12.1846 116.849 12.6917 116.729C13.1987 116.61 13.7173 116.57 14.2475 116.608C14.7777 116.646 15.2813 116.807 15.7583 117.09C16.2288 117.361 16.6254 117.796 16.9481 118.394L19.1744 122.52L23.4619 120.206C23.5934 120.135 23.7107 120.095 23.8138 120.086C23.9049 120.083 23.991 120.114 24.072 120.178C24.1466 120.23 24.2194 120.322 24.2904 120.454ZM19.9833 112.772C20.1509 112.882 20.2463 113.016 20.2694 113.173C20.2861 113.319 20.2393 113.475 20.129 113.643L16.972 118.867L16.1745 117.861L19.0599 112.992C19.1462 112.838 19.234 112.728 19.3233 112.665C19.4125 112.601 19.5091 112.58 19.6131 112.601C19.7172 112.622 19.8405 112.679 19.9833 112.772ZM18.1518 123.071L15.9449 118.981C15.7707 118.658 15.5528 118.398 15.2912 118.199C15.0232 117.988 14.718 117.852 14.3755 117.79C14.0266 117.715 13.6497 117.718 13.2448 117.798C12.8335 117.865 12.3946 118.025 11.9282 118.276C11.3182 118.605 10.868 118.987 10.5776 119.422C10.2687 119.851 10.1255 120.33 10.1481 120.858C10.1522 121.381 10.322 121.953 10.6576 122.575L12.5548 126.091L18.1518 123.071Z" fill="white"/>
<path d="M16.3005 100.609C16.5176 101.549 16.5422 102.47 16.3743 103.374C16.2064 104.277 15.878 105.12 15.3892 105.903C14.8974 106.672 14.2757 107.331 13.5241 107.882C12.7694 108.418 11.9154 108.797 10.962 109.017C9.9822 109.243 9.02221 109.284 8.08205 109.138C7.14189 108.993 6.27707 108.69 5.48761 108.231C4.69815 107.772 4.02631 107.188 3.4721 106.479C2.91483 105.757 2.5307 104.939 2.31971 104.026C2.1026 103.085 2.07801 102.164 2.24593 101.26C2.41385 100.357 2.75188 99.5254 3.26003 98.7665C3.75187 97.9974 4.38837 97.3414 5.16953 96.7983C5.93439 96.2451 6.80673 95.8554 7.78655 95.6291C8.7399 95.409 9.68003 95.3732 10.6069 95.5217C11.5206 95.6733 12.3722 95.9788 13.1617 96.438C13.9511 96.8973 14.623 97.4813 15.1772 98.1902C15.7181 98.902 16.0926 99.7082 16.3005 100.609ZM15.1364 101.003C14.959 100.235 14.6482 99.5536 14.2041 98.9588C13.7436 98.3539 13.1904 97.861 12.5446 97.4801C11.8855 97.1023 11.173 96.8554 10.407 96.7395C9.63795 96.6102 8.84959 96.6389 8.04189 96.8254C7.24744 97.0089 6.53297 97.3273 5.89847 97.7806C5.26092 98.2208 4.73695 98.7602 4.32657 99.3989C3.89989 100.027 3.61072 100.708 3.45907 101.44C3.30742 102.173 3.31875 102.916 3.49304 103.671C3.66734 104.426 3.98473 105.105 4.44522 105.71C4.90265 106.302 5.45581 106.795 6.1047 107.189C6.75053 107.57 7.46459 107.823 8.24687 107.95C9.01285 108.066 9.79968 108.03 10.6074 107.844C11.4018 107.66 12.1163 107.342 12.7508 106.889C13.3853 106.435 13.9093 105.896 14.3227 105.27C14.7361 104.645 15.0187 103.966 15.1703 103.234C15.322 102.501 15.3107 101.758 15.1364 101.003Z" fill="white"/>
<path d="M14.3101 87.4981C14.3036 87.6203 14.2707 87.7274 14.2114 87.8195C14.1528 87.8981 14.0746 87.962 13.9768 88.0112C13.8796 88.0469 13.77 88.0616 13.6478 88.0551L0.660924 87.3689C0.52522 87.3617 0.417732 87.3356 0.338461 87.2906C0.246336 87.2313 0.182428 87.1531 0.146736 87.0559C0.097474 86.9581 0.0760696 86.8481 0.0825234 86.7259L0.323381 82.5541C0.377162 81.5363 0.588051 80.6357 0.95605 79.8522C1.3112 79.0545 1.8088 78.3936 2.44887 77.8695C3.07609 77.3311 3.83148 76.9423 4.71505 76.7032C5.59934 76.4506 6.59108 76.3533 7.69029 76.4114C8.81664 76.4709 9.81975 76.6736 10.6996 77.0194C11.5659 77.3646 12.2961 77.8387 12.8903 78.4416C13.4715 79.0303 13.9035 79.7403 14.1862 80.5717C14.4688 81.4032 14.5829 82.3346 14.5284 83.3659L14.3101 87.4981ZM13.121 86.8229L13.3103 83.2403C13.3691 82.1276 13.1886 81.1654 12.7688 80.354C12.3354 79.5418 11.6956 78.9024 10.8493 78.4358C9.98946 77.9685 8.94887 77.7026 7.72753 77.6381C6.49262 77.5728 5.42301 77.7272 4.5187 78.1013C3.61439 78.4754 2.91038 79.0506 2.40668 79.8268C1.89012 80.5888 1.60245 81.5262 1.54365 82.639L1.35541 86.2012L13.121 86.8229Z" fill="white"/>
<path d="M17.9481 64.7975C17.6642 65.6195 17.2743 66.3115 16.7783 66.8735C16.2823 67.4354 15.6976 67.8589 15.0241 68.1438C14.3421 68.4115 13.593 68.5409 12.7765 68.5321C11.9517 68.506 11.0704 68.3311 10.1327 68.0072L3.25428 65.6316C3.11299 65.5828 3.01046 65.5259 2.9467 65.4607C2.87009 65.3911 2.82583 65.3111 2.81391 65.2208C2.80643 65.1175 2.82709 64.9953 2.87589 64.854C2.92912 64.6999 2.98832 64.5909 3.05347 64.5271C3.12306 64.4505 3.20946 64.4085 3.31269 64.401C3.40306 64.3891 3.52532 64.4098 3.67946 64.463L10.5386 66.8319C11.5405 67.178 12.463 67.3168 13.3061 67.2486C14.1407 67.163 14.8636 66.8807 15.4748 66.4017C16.0775 65.9054 16.5297 65.2205 16.8313 64.3471C17.133 63.4736 17.1976 62.6621 17.0252 61.9124C16.84 61.1583 16.4431 60.4965 15.8347 59.927C15.2179 59.3402 14.4021 58.8715 13.3874 58.521L6.4126 56.1122C6.297 56.0723 6.21374 56.0219 6.16282 55.9612C6.1119 55.9005 6.08913 55.8208 6.09449 55.722C6.08701 55.6187 6.10767 55.4965 6.15647 55.3552C6.20527 55.2139 6.26224 55.1114 6.32739 55.0476C6.39698 54.971 6.48117 54.9354 6.57996 54.9407C6.67033 54.9288 6.79259 54.9495 6.94673 55.0027L13.8444 57.385C14.7821 57.7088 15.5749 58.1192 16.2228 58.6161C16.8751 59.1002 17.3783 59.6621 17.7324 60.302C18.0865 60.9419 18.283 61.6424 18.3221 62.4035C18.3656 63.1517 18.2409 63.9497 17.9481 64.7975Z" fill="white"/>
<path d="M17.4658 36.0675C17.551 35.9447 17.6335 35.8614 17.7135 35.8176C17.7935 35.7738 17.8803 35.7679 17.9739 35.7998C18.0642 35.8127 18.1763 35.8657 18.3103 35.9586C18.4331 36.0438 18.522 36.1302 18.577 36.218C18.6207 36.2979 18.6323 36.3886 18.6115 36.49C18.5874 36.5725 18.5328 36.6752 18.4476 36.798L15.7759 40.6506L25.9601 47.7132C26.0829 47.7984 26.1718 47.8848 26.2268 47.9725C26.2705 48.0525 26.2821 48.1432 26.2613 48.2446C26.2484 48.3348 26.1993 48.4414 26.1141 48.5642C26.0289 48.687 25.9425 48.7759 25.8548 48.8308C25.7748 48.8746 25.6841 48.8861 25.5827 48.8654C25.4891 48.8336 25.3808 48.775 25.258 48.6899L15.0905 41.6389L12.3839 45.5417C12.2988 45.6645 12.2179 45.7573 12.1414 45.82C12.0614 45.8637 11.9763 45.8791 11.8861 45.8662C11.7847 45.8455 11.6725 45.7925 11.5497 45.7073C11.4157 45.6144 11.3229 45.5335 11.2714 45.4647C11.2165 45.377 11.1955 45.2881 11.2085 45.1978C11.2292 45.0964 11.2782 44.9899 11.3557 44.8782L17.4658 36.0675Z" fill="white"/>
<path d="M38.1814 35.5421C37.4377 36.1567 36.6242 36.591 35.741 36.8449C34.8578 37.0988 33.9571 37.1822 33.0387 37.0949C32.1309 36.999 31.2628 36.7379 30.4346 36.3117C29.6168 35.8769 28.8963 35.2824 28.273 34.5282C27.6324 33.753 27.1669 32.9124 26.8765 32.0065C26.5862 31.1005 26.4698 30.1918 26.5275 29.2803C26.5852 28.3688 26.807 27.5067 27.1931 26.694C27.5897 25.8726 28.1494 25.1632 28.8722 24.5659C29.6159 23.9512 30.4294 23.5169 31.3126 23.263C32.1958 23.0091 33.0904 22.9397 33.9964 23.0547C34.9043 23.1507 35.7758 23.4265 36.6108 23.8823C37.4477 24.319 38.1864 24.9249 38.8271 25.7001C39.4504 26.4543 39.9029 27.2791 40.1846 28.1746C40.4576 29.0596 40.5653 29.9579 40.5077 30.8694C40.45 31.7809 40.2281 32.643 39.842 33.4557C39.4472 34.2579 38.8937 34.9534 38.1814 35.5421ZM37.308 34.6773C37.9156 34.1751 38.386 33.5924 38.7193 32.9291C39.0544 32.2467 39.2478 31.5315 39.2996 30.7835C39.3427 30.0251 39.2449 29.2774 39.006 28.5404C38.7776 27.7948 38.3994 27.1025 37.8713 26.4635C37.3519 25.835 36.7476 25.3384 36.0583 24.9736C35.3795 24.6003 34.6627 24.3729 33.9079 24.2915C33.1549 24.191 32.4169 24.2367 31.6941 24.4286C30.9712 24.6205 30.3112 24.9632 29.7142 25.4567C29.1171 25.9501 28.651 26.5381 28.3159 27.2205C27.9912 27.8943 27.7978 28.6095 27.7355 29.3661C27.6838 30.1141 27.7764 30.8661 28.0134 31.6222C28.2523 32.3592 28.6357 33.0472 29.1638 33.6862C29.6832 34.3147 30.2876 34.8113 30.9769 35.176C31.6661 35.5407 32.383 35.7681 33.1273 35.8582C33.8716 35.9482 34.6052 35.8972 35.3281 35.7053C36.051 35.5134 36.7109 35.1707 37.308 34.6773Z" fill="white"/>
<path d="M61.7528 22.9089C61.5461 22.9764 61.3893 22.9776 61.2822 22.9125C61.1752 22.8474 61.0879 22.7115 61.0204 22.5048L56.9766 10.123C56.9048 9.90342 56.8951 9.74221 56.9473 9.63939C57.0124 9.53235 57.1483 9.44508 57.355 9.37758C57.5617 9.31007 57.7185 9.30888 57.8256 9.37399C57.9326 9.4391 58.022 9.58146 58.0937 9.80106L62.1312 22.1635C62.1987 22.3702 62.2064 22.5249 62.1542 22.6277C62.1062 22.7435 61.9724 22.8372 61.7528 22.9089ZM54.8497 15.3637C54.7282 15.5606 54.6093 15.6781 54.493 15.7161C54.3897 15.7498 54.2396 15.7059 54.0426 15.5844C53.8628 15.4716 53.7604 15.3549 53.7353 15.2345C53.7103 15.114 53.7585 14.9553 53.88 14.7583L56.8626 9.77425C56.9713 9.58152 57.0858 9.47263 57.2063 9.44758C57.3268 9.42253 57.4834 9.46431 57.6761 9.57291C57.8646 9.6686 57.9735 9.78314 58.0027 9.91654C58.0278 10.037 57.9731 10.1978 57.8387 10.399L54.8497 15.3637Z" fill="white"/>
<path d="M72.9023 20.8014C72.2538 20.8713 71.6558 20.84 71.1085 20.7076C70.5597 20.5618 70.0616 20.3148 69.614 19.9666C69.1665 19.6185 68.7763 19.1685 68.4434 18.6166C68.1106 18.0647 67.8359 17.4178 67.6192 16.6757C67.4026 15.9337 67.244 15.0965 67.1435 14.1642C67.0445 13.2455 67.0225 12.4072 67.0776 11.6496C67.1311 10.8784 67.2625 10.1945 67.4715 9.59791C67.6791 8.98781 67.9578 8.46573 68.3074 8.03169C68.669 7.58267 69.1024 7.22844 69.6075 6.96899C70.1126 6.70953 70.6826 6.54559 71.3177 6.47716C71.9392 6.41018 72.5176 6.45036 73.0528 6.5977C73.5881 6.74504 74.0735 7.00026 74.509 7.36337C74.943 7.71297 75.3265 8.1637 75.6593 8.71556C75.9921 9.26742 76.2669 9.91438 76.4835 10.6564C76.6987 11.385 76.8558 12.2087 76.9548 13.1274C77.0538 14.0462 77.0765 14.8911 77.023 15.6623C76.9679 16.42 76.8366 17.1039 76.629 17.714C76.4349 18.3226 76.163 18.844 75.8134 19.278C75.4638 19.7121 75.0433 20.0581 74.5517 20.3161C74.0736 20.5726 73.5238 20.7344 72.9023 20.8014ZM72.6699 19.5963C73.413 19.5162 73.9975 19.296 74.4234 18.9358C74.8628 18.5741 75.1847 18.1362 75.389 17.6221C75.6068 17.1066 75.7406 16.5728 75.7905 16.0207C75.8538 15.4671 75.8735 14.9524 75.8496 14.4766C75.8256 14.0008 75.7991 13.6278 75.77 13.3576L75.7569 13.236C75.6215 11.9795 75.3639 10.9206 74.984 10.0595C74.6177 9.19684 74.1328 8.56569 73.5294 8.16601C72.938 7.75136 72.2369 7.58772 71.4262 7.67508C70.6021 7.7639 69.9385 8.0746 69.4355 8.60719C68.931 9.12626 68.585 9.84696 68.3973 10.7693C68.2218 11.6766 68.2031 12.7721 68.3415 14.0556C68.4769 15.3122 68.7277 16.3717 69.094 17.2344C69.4724 18.082 69.9573 18.7132 70.5487 19.1278C71.1522 19.5275 71.8592 19.6836 72.6699 19.5963Z" fill="white"/>
<path d="M88.4236 20.9877C87.7768 20.9026 87.2031 20.7313 86.7025 20.4735C86.2036 20.2024 85.7777 19.8448 85.4249 19.4009C85.0721 18.9571 84.799 18.4277 84.6057 17.813C84.4124 17.1982 84.298 16.5047 84.2625 15.7324C84.227 14.9602 84.2703 14.1093 84.3926 13.1796C84.513 12.2634 84.6893 11.4436 84.9215 10.7203C85.1555 9.98352 85.4444 9.3499 85.7882 8.81945C86.1339 8.27552 86.5278 7.83388 86.9699 7.49453C87.4272 7.14347 87.9319 6.90144 88.4839 6.76843C89.036 6.63542 89.6286 6.61054 90.2619 6.69381C90.8816 6.7753 91.4342 6.95076 91.9197 7.22018C92.4051 7.4896 92.8166 7.85209 93.1542 8.30767C93.4935 8.74978 93.7598 9.27822 93.9531 9.89301C94.1464 10.5078 94.2608 11.2013 94.2964 11.9735C94.3337 12.7323 94.2921 13.5698 94.1716 14.486C94.0511 15.4021 93.8739 16.2286 93.64 16.9654C93.4078 17.6888 93.1189 18.3224 92.7733 18.8663C92.4411 19.412 92.054 19.8545 91.6119 20.1939C91.1698 20.5332 90.6794 20.7703 90.1409 20.9051C89.6158 21.0416 89.0433 21.0692 88.4236 20.9877ZM88.4819 19.7618C89.223 19.8592 89.8429 19.7831 90.3418 19.5335C90.8541 19.2856 91.2701 18.9359 91.5899 18.4846C91.9231 18.0349 92.1791 17.5478 92.3577 17.023C92.5499 16.5 92.6904 16.0045 92.7793 15.5365C92.8683 15.0684 92.9305 14.6997 92.9659 14.4302L92.9819 14.309C93.1466 13.0559 93.146 11.9662 92.98 11.0397C92.8274 10.1151 92.5051 9.38736 92.0129 8.85663C91.536 8.3142 90.8933 7.98984 90.0849 7.88355C89.263 7.77548 88.5449 7.92092 87.9304 8.31985C87.3178 8.70532 86.8115 9.32407 86.4117 10.1761C86.0271 11.0165 85.7506 12.0766 85.5823 13.3566C85.4175 14.6096 85.4114 15.6985 85.564 16.6231C85.7318 17.5361 86.0541 18.2638 86.5311 18.8063C87.0232 19.337 87.6735 19.6555 88.4819 19.7618Z" fill="white"/>
<path d="M101.486 24.7587C101.4 24.6481 101.351 24.5384 101.338 24.4296C101.333 24.3386 101.372 24.2297 101.456 24.103C101.547 23.9941 101.683 23.8674 101.863 23.7228L113.968 13.9383C114.148 13.7937 114.295 13.6937 114.407 13.6384C114.532 13.5884 114.647 13.5785 114.752 13.6088C114.857 13.6391 114.953 13.7095 115.039 13.8201C115.124 13.9307 115.167 14.0378 115.167 14.1413C115.173 14.2323 115.13 14.3322 115.039 14.4411C114.96 14.5553 114.828 14.691 114.643 14.8481L102.519 24.6246C102.357 24.762 102.213 24.8557 102.088 24.9057C101.958 24.9682 101.846 24.987 101.754 24.9621C101.661 24.9371 101.572 24.8693 101.486 24.7587ZM104.342 17.9325C103.318 17.4939 102.629 16.8223 102.278 15.9178C101.931 15.0007 101.982 14.0175 102.432 12.9682C102.881 11.9188 103.554 11.2093 104.452 10.8396C105.355 10.4574 106.318 10.4856 107.343 10.9242C108.342 11.3521 109.011 12.0156 109.351 12.9148C109.69 13.814 109.635 14.7883 109.186 15.8377C108.731 16.8996 108.059 17.6243 107.168 18.0118C106.284 18.3868 105.341 18.3604 104.342 17.9325ZM104.775 16.9206C105.462 17.2148 106.111 17.219 106.721 16.9333C107.349 16.6404 107.826 16.113 108.152 15.3509C108.468 14.6139 108.507 13.9358 108.269 13.3167C108.05 12.6905 107.596 12.2303 106.909 11.9361C106.197 11.6312 105.526 11.61 104.896 11.8726C104.279 12.1404 103.813 12.6429 103.497 13.38C103.171 14.142 103.121 14.8451 103.348 15.4892C103.587 16.1386 104.063 16.6157 104.775 16.9206ZM109.632 27.3815C108.607 26.9429 107.919 26.2714 107.567 25.3668C107.221 24.4498 107.272 23.4666 107.721 22.4172C108.171 21.3678 108.844 20.6583 109.741 20.2886C110.644 19.9064 111.608 19.9346 112.632 20.3732C113.632 20.8011 114.301 21.4647 114.64 22.3639C114.98 23.2631 114.925 24.2374 114.475 25.2867C114.021 26.3486 113.348 27.0733 112.458 27.4608C111.573 27.8359 110.631 27.8094 109.632 27.3815ZM110.065 26.3696C110.752 26.6638 111.4 26.668 112.011 26.3823C112.639 26.0895 113.116 25.562 113.442 24.8C113.758 24.0629 113.797 23.3848 113.559 22.7657C113.339 22.1395 112.886 21.6793 112.199 21.3851C111.487 21.0802 110.816 21.0591 110.186 21.3216C109.569 21.5895 109.102 22.0919 108.787 22.829C108.461 23.5911 108.411 24.2941 108.638 24.9382C108.877 25.5876 109.353 26.0648 110.065 26.3696Z" fill="white"/>
<path d="M125.078 38.2041C124.996 38.1131 124.948 38.0191 124.934 37.9221C124.91 37.8342 124.915 37.7382 124.949 37.6342C124.993 37.5403 125.065 37.448 125.166 37.3572L134.872 28.6403C134.963 28.5585 135.052 28.5152 135.139 28.5102C135.236 28.4962 135.332 28.5109 135.426 28.5545C135.528 28.6081 135.625 28.6855 135.716 28.7866C135.852 28.9383 135.942 29.0586 135.985 29.1475C136.039 29.2273 136.057 29.339 136.04 29.4824L132.679 43.9529L141.505 36.026C141.596 35.9443 141.681 35.8959 141.759 35.8808C141.856 35.8668 141.951 35.8815 142.045 35.925C142.139 35.9686 142.231 36.0409 142.322 36.142C142.404 36.233 142.452 36.327 142.466 36.424C142.499 36.522 142.494 36.6179 142.45 36.7118C142.407 36.8057 142.334 36.8981 142.233 36.9889L132.588 45.6513C132.487 45.7421 132.378 45.794 132.262 45.807C132.165 45.8211 132.065 45.8013 131.962 45.7476C131.849 45.7031 131.747 45.6302 131.656 45.5291C131.565 45.428 131.499 45.3234 131.456 45.2153C131.414 45.1072 131.407 44.9673 131.436 44.7956L134.69 30.4204L125.955 38.2656C125.854 38.3564 125.75 38.4134 125.642 38.4365C125.555 38.4606 125.464 38.4509 125.37 38.4074C125.266 38.3729 125.168 38.3052 125.078 38.2041Z" fill="white"/>
<path d="M142.217 62.3489C142.137 62.4639 142.048 62.5455 141.951 62.5935C141.872 62.6478 141.78 62.6624 141.677 62.6375C141.592 62.6188 141.489 62.5635 141.368 62.4717C141.187 62.3187 141.102 62.1633 141.116 62.0053C141.122 61.8656 141.19 61.711 141.319 61.5416L149.692 51.142L136.39 51.4493C136.165 51.4541 135.992 51.4105 135.871 51.3187C135.756 51.239 135.684 51.0776 135.655 50.8343C135.643 50.6884 135.662 50.573 135.711 50.4882C135.773 50.3974 135.87 50.3341 136.004 50.2984C136.138 50.2627 136.302 50.2424 136.497 50.2374L150.637 50.0626C150.758 50.0633 150.871 50.0913 150.974 50.1466C151.083 50.214 151.164 50.3026 151.218 50.4123C151.254 50.4854 151.275 50.5585 151.281 50.6315C151.287 50.7044 151.277 50.7773 151.252 50.8501C151.228 50.9229 151.182 50.9986 151.114 51.0772L142.217 62.3489ZM140.649 51.0997L141.743 51.0148L144.97 57.5603L144.227 58.3583L140.649 51.0997Z" fill="white"/>
<path d="M159.067 75.9169C159.095 76.0637 159.097 76.1809 159.072 76.2687C159.048 76.3565 158.991 76.4227 158.903 76.4674C158.831 76.5228 158.714 76.5659 158.554 76.5967C158.407 76.625 158.284 76.6281 158.182 76.606C158.095 76.5814 158.022 76.5262 157.964 76.4405C157.922 76.3656 157.886 76.2547 157.858 76.108L156.972 71.5041L144.802 73.8461C144.655 73.8744 144.531 73.8774 144.43 73.8554C144.342 73.8308 144.27 73.7756 144.212 73.6899C144.156 73.6175 144.114 73.508 144.086 73.3612C144.058 73.2144 144.055 73.0904 144.077 72.9893C144.101 72.9015 144.156 72.8286 144.242 72.7706C144.33 72.726 144.448 72.6895 144.595 72.6613L156.745 70.3231L155.847 65.6592C155.819 65.5124 155.809 65.3897 155.818 65.2912C155.843 65.2034 155.891 65.1318 155.964 65.0764C156.049 65.0183 156.166 64.9752 156.312 64.947C156.473 64.9162 156.595 64.9064 156.68 64.9177C156.782 64.9397 156.86 64.9869 156.915 65.0593C156.973 65.145 157.015 65.2546 157.041 65.388L159.067 75.9169Z" fill="white"/>
<path d="M145.079 90.8583C145.152 89.9916 145.359 89.2249 145.702 88.5581C146.044 87.8913 146.506 87.3369 147.089 86.8948C147.684 86.4674 148.378 86.1574 149.172 85.9649C149.978 85.787 150.875 85.7395 151.863 85.8225L159.115 86.4307C159.264 86.4432 159.377 86.4732 159.455 86.5206C159.547 86.5692 159.609 86.6358 159.643 86.7205C159.676 86.8187 159.686 86.9423 159.673 87.0912C159.66 87.2537 159.629 87.3739 159.582 87.4517C159.533 87.5431 159.46 87.6052 159.362 87.6378C159.277 87.6716 159.153 87.6817 158.991 87.6681L151.759 87.0615C150.703 86.9729 149.775 87.0655 148.975 87.3393C148.187 87.6278 147.556 88.0795 147.081 88.6942C146.619 89.3237 146.35 90.0989 146.273 91.0197C146.195 91.9406 146.333 92.743 146.684 93.4271C147.05 94.1123 147.597 94.656 148.327 95.0582C149.07 95.475 149.976 95.7283 151.045 95.818L158.399 96.4348C158.52 96.445 158.614 96.4733 158.678 96.5196C158.742 96.5659 158.784 96.6376 158.803 96.7347C158.836 96.8329 158.846 96.9564 158.833 97.1054C158.821 97.2544 158.791 97.3678 158.743 97.4456C158.695 97.537 158.622 97.5922 158.525 97.6114C158.44 97.6452 158.317 97.6553 158.154 97.6417L150.882 97.0317C149.894 96.9488 149.024 96.7463 148.274 96.4242C147.522 96.1157 146.896 95.695 146.396 95.1621C145.895 94.6291 145.532 93.9987 145.306 93.2706C145.08 92.5561 145.004 91.752 145.079 90.8583Z" fill="white"/>
<path d="M142.695 104.429C142.746 104.289 142.807 104.181 142.878 104.106C142.945 104.043 143.03 104.009 143.133 104.004C143.232 104.011 143.351 104.04 143.491 104.092L155.701 108.57C155.829 108.617 155.924 108.673 155.986 108.74C156.044 108.819 156.078 108.904 156.088 108.994C156.107 109.102 156.092 109.22 156.046 109.348L154.452 113.692C154.204 114.368 153.9 114.922 153.539 115.354C153.173 115.799 152.755 116.13 152.284 116.349C151.813 116.567 151.286 116.663 150.702 116.637C150.126 116.628 149.5 116.5 148.824 116.252C148.428 116.107 148.018 115.884 147.592 115.583C147.167 115.283 146.793 114.921 146.47 114.499C146.148 114.076 145.934 113.593 145.83 113.048C145.721 112.516 145.784 111.931 146.018 111.293L147.632 106.891L143.058 105.214C142.918 105.162 142.81 105.101 142.735 105.03C142.672 104.964 142.638 104.879 142.633 104.776C142.623 104.685 142.643 104.57 142.695 104.429ZM139.796 112.746C139.768 112.547 139.805 112.387 139.907 112.265C140.005 112.157 140.154 112.088 140.352 112.059L146.357 110.961L146.132 112.225L140.573 113.291C140.4 113.329 140.26 113.336 140.154 113.311C140.047 113.286 139.967 113.228 139.914 113.136C139.861 113.044 139.822 112.914 139.796 112.746ZM148.723 107.291L147.123 111.655C146.996 111.999 146.945 112.335 146.97 112.663C146.99 113.003 147.09 113.322 147.27 113.62C147.446 113.93 147.698 114.211 148.026 114.461C148.349 114.724 148.759 114.947 149.257 115.13C149.908 115.369 150.492 115.453 151.01 115.382C151.536 115.329 151.989 115.119 152.37 114.752C152.759 114.402 153.075 113.896 153.318 113.232L154.694 109.481L148.723 107.291Z" fill="white"/>
<path d="M130.304 129.277C130.164 129.262 130.05 129.224 129.962 129.161C129.876 129.118 129.819 129.044 129.792 128.942C129.768 128.858 129.767 128.741 129.789 128.591C129.837 128.359 129.933 128.21 130.078 128.146C130.204 128.085 130.372 128.071 130.582 128.102L143.722 130.472L137.081 118.942C136.969 118.747 136.925 118.574 136.947 118.424C136.962 118.285 137.07 118.144 137.269 118.002C137.392 117.923 137.502 117.884 137.6 117.886C137.709 117.897 137.812 117.952 137.907 118.052C138.002 118.153 138.099 118.287 138.196 118.456L145.122 130.785C145.179 130.892 145.209 131.004 145.209 131.121C145.202 131.249 145.164 131.363 145.093 131.463C145.046 131.53 144.992 131.583 144.931 131.623C144.87 131.663 144.801 131.689 144.725 131.703C144.65 131.716 144.561 131.712 144.46 131.69L130.304 129.277ZM139.428 122.514L140.027 123.434L135.826 129.401L134.769 129.131L139.428 122.514Z" fill="white"/>
<path d="M125.136 133.122C125.26 133.016 125.372 132.948 125.471 132.917C125.569 132.886 125.661 132.889 125.745 132.924C125.838 132.97 125.933 133.05 126.03 133.163L134.468 143.033C134.574 143.156 134.643 143.258 134.675 143.338C134.706 143.437 134.704 143.528 134.668 143.612C134.622 143.705 134.543 143.8 134.429 143.897C134.315 143.994 134.214 144.054 134.126 144.076C134.027 144.107 133.931 144.099 133.839 144.053C133.755 144.018 133.664 143.943 133.567 143.83L125.513 134.41L119.858 139.245C119.744 139.342 119.643 139.401 119.555 139.423C119.465 139.465 119.373 139.462 119.281 139.416C119.197 139.381 119.106 139.306 119.009 139.193C118.912 139.079 118.848 138.973 118.817 138.874C118.776 138.784 118.773 138.697 118.808 138.613C118.844 138.529 118.919 138.439 119.032 138.342L125.136 133.122Z" fill="white"/>
<path d="M71.0191 117.144C71.0191 117.144 59.2443 115.376 55.0318 99.4143C50.8193 83.4525 52.5093 77.2983 51.8399 69.5969C51.1625 61.9008 47.5236 56.2928 47.5236 56.2928C47.5236 56.2928 60.8183 63.5121 64.0019 69.3362C67.1855 75.1603 70.0471 84.8386 70.0124 89.6976C69.9644 94.5537 69.356 100.222 70.0373 105.864C70.7186 111.506 71.0191 117.144 71.0191 117.144Z" fill="#00A500" fill-opacity="0.8"/>
<path d="M79.3316 121.956C79.3316 121.956 78.2991 104.383 85.1394 94.7844C91.985 85.1941 98.8827 81.5294 103.978 77.5598C109.072 73.5903 109.407 71.023 109.407 71.023C109.407 71.023 111.304 89.6955 109.527 98.1293C107.746 106.555 105.383 110.408 100.601 114.242C95.8199 118.077 87.3923 119.62 84.6605 121.41C81.9288 123.199 78.6664 125.036 78.6664 125.036L79.3316 121.956Z" fill="#00A500" fill-opacity="0.8"/>
<path d="M109.374 68.1907C109.201 67.9597 108.896 67.8258 108.612 67.9879C107.644 68.5607 106.939 69.3975 106.147 70.188C105.239 71.0998 104.292 71.9686 103.321 72.8185C101.556 74.3682 99.7231 75.848 97.8794 77.3117C94.1273 80.3156 90.3776 83.3408 87.0675 86.8478C84.1751 89.9224 81.7376 93.3084 80.067 97.2037C78.4375 101.003 77.4677 105.13 77.2066 109.254C76.9519 113.282 77.2093 117.745 78.6964 121.579C78.6289 121.898 78.551 122.201 78.4836 122.52C78.3487 123.157 78.2323 123.806 78.1188 124.442C76.0876 122.36 74.0239 120.334 72.0893 118.189C72.111 118.152 72.1275 118.107 72.1121 118.048C70.7443 113.059 70.116 107.921 70.0289 102.752C69.9448 97.7985 70.2524 92.8306 70.0084 87.878C69.7575 82.8267 68.9988 77.6819 66.8971 73.0445C64.9696 68.798 61.9737 65.5335 58.2122 62.8361C56.2113 61.3995 54.121 60.0897 52.1687 58.587C50.0947 57.0031 48.5453 55.2038 46.9909 53.1326C46.92 53.0413 46.8406 52.9898 46.7556 52.9649C46.4019 52.6679 45.724 53.0175 45.8492 53.5091C46.4758 56.1268 46.9884 58.6927 47.14 61.3904C47.287 64.0109 47.3407 66.6463 47.3758 69.2709C47.4481 74.5759 47.4644 79.8831 47.9204 85.1791C48.7553 94.7898 51.444 104.924 58.6928 111.747C60.4068 113.359 62.3421 114.712 64.427 115.785C66.2231 116.713 68.2172 117.558 70.2605 117.81C72.5958 120.587 75.1645 123.213 77.964 125.436C77.4154 128.819 77.1115 132.226 77.2897 135.651C77.311 136.142 78.0893 136.105 78.1397 135.637C78.4577 132.393 78.7681 129.119 79.2911 125.891C79.3076 125.845 79.316 125.806 79.3111 125.763C79.3143 125.715 79.3308 125.67 79.334 125.622C82.8739 122.538 87.4769 120.895 91.7613 119.149C96.1903 117.343 100.537 115.305 103.802 111.712C110.261 104.609 111.58 94.6272 111.268 85.3978C111.171 82.6074 110.983 79.8187 110.843 77.0331C110.767 75.5244 110.674 74.0261 110.512 72.5271C110.362 71.1348 110.265 69.7537 109.669 68.4684C109.615 68.3319 109.501 68.2454 109.374 68.1907ZM68.9731 102.098C69.0733 107.041 69.3589 112.093 71.1034 116.745C70.9866 116.707 70.8698 116.668 70.753 116.629C70.1087 115.868 69.4752 115.089 68.8686 114.28C67.5717 112.534 66.3746 110.678 65.3115 108.745C65.0833 107.69 64.7191 106.655 64.5762 105.591C64.3739 104.118 64.3718 102.618 64.4678 101.146C64.664 98.0842 65.3337 95.0811 66.0775 92.1214C66.7908 89.2733 67.5625 86.4444 68.0897 83.557C68.121 83.3762 68.1604 83.1901 68.1945 82.996C69.1432 89.2778 68.8446 95.8443 68.9731 102.098ZM67.6304 80.0166C67.637 80.1499 67.6354 80.2884 67.6391 80.435C67.6018 81.8919 67.3648 83.3412 67.104 84.7716C66.5378 87.8105 65.6526 90.782 64.9616 93.7875C64.3155 96.5804 63.818 99.4256 63.7812 102.292C63.7615 103.6 63.8538 104.903 64.0314 106.197C64.0286 106.211 64.0338 106.219 64.031 106.232C63.1512 104.352 62.405 102.431 61.8432 100.459C60.4012 95.4265 60.1522 90.2021 59.5296 85.0375C59.3268 83.3702 59.0865 81.7158 58.7903 80.0634C59.0435 77.3887 59.5149 74.7324 59.7548 72.055C59.9423 70.019 60.0391 67.7555 59.4752 65.7272C61.5945 67.5568 63.4553 69.6233 64.8361 72.22C66.146 74.7253 67.0231 77.3405 67.6304 80.0166ZM55.0313 62.3509C56.2765 63.2251 57.4842 64.1122 58.6381 65.0573C58.8747 66.0723 59.0711 67.1135 59.145 68.1426C59.2434 69.6143 59.1526 71.0946 58.9953 72.5608C58.7971 74.3516 58.5031 76.136 58.3609 77.9247C57.8144 75.2892 57.137 72.6816 56.2592 70.1357C55.322 67.4106 54.1574 64.7764 52.7223 62.2723C52.0975 61.1891 51.4243 60.1374 50.6949 59.1223C52.0836 60.2698 53.556 61.317 55.0313 62.3509ZM49.0025 61.1178C48.9445 60.3419 48.8759 59.5499 48.7647 58.7628C48.8775 58.9186 49.0036 59.0771 49.1165 59.2329C49.9455 60.4009 50.7154 61.6189 51.4265 62.8522C52.6681 65.0237 53.7354 67.2973 54.6397 69.6197C56.5757 74.5483 57.7625 79.7697 58.3441 85.0298C58.3438 85.0644 58.3567 85.1019 58.3563 85.1365C57.9306 84.3592 57.43 83.6078 56.9777 82.8249C56.0836 81.2752 55.0144 79.8967 53.9512 78.4571C52.2396 76.1445 50.5791 73.7871 49.3018 71.2262C49.3002 70.6427 49.2934 70.0512 49.2838 69.473C49.253 66.6966 49.2198 63.8989 49.0025 61.1178ZM49.3255 72.9528C50.3156 74.738 51.5975 76.3905 52.8855 77.9818C54.063 79.4387 55.1894 80.9403 56.3106 82.4339C57.2718 83.6993 57.8662 85.1231 58.4953 86.5473C58.9369 91.2224 59.1352 95.9641 60.4122 100.496C60.4739 100.697 60.5304 100.889 60.5921 101.09C60.2489 100.809 59.8734 100.549 59.5382 100.263C58.8836 99.7151 58.2558 99.1381 57.639 98.5425C56.566 97.5104 55.5952 96.3888 54.6756 95.2224C53.7507 94.048 52.8878 92.8104 52.0301 91.5808C51.4453 90.7352 50.8311 89.8972 50.2302 89.0621C49.4625 83.7627 49.3757 78.3296 49.3255 72.9528ZM65.5823 114.655C63.7205 113.643 62.0297 112.348 60.4845 110.89C57.1674 107.766 54.6949 103.897 53.0042 99.6798C51.7829 96.624 50.9756 93.4821 50.4299 90.2845C50.7093 90.8017 50.9915 91.3057 51.3031 91.8019C52.1802 93.2023 53.1217 94.5606 54.1517 95.8614C55.1318 97.103 56.1952 98.2789 57.3476 99.3625C58.3049 100.252 59.5418 101.395 60.8266 101.82C62.2077 106.09 64.3302 110.037 66.9946 113.655C67.5721 114.437 68.171 115.216 68.7779 115.99C67.6897 115.621 66.6099 115.212 65.5823 114.655ZM87.8273 88.015C89.5383 86.2595 91.402 84.6682 93.3209 83.144C93.3181 83.1573 93.3153 83.1706 93.3073 83.1759C92.968 83.9927 92.6049 84.7906 92.2337 85.5938C91.4806 87.2186 90.6984 88.8165 90.0488 90.4771C89.1495 92.793 88.5185 95.1865 88.5048 97.648C87.8161 98.738 87.1379 99.8442 86.5049 100.967C84.7714 104.044 83.2815 107.248 82.0225 110.543C81.5776 108.117 81.3328 105.663 81.3413 103.193C81.3412 101.749 81.4236 100.309 81.5805 98.8774C81.6789 97.9194 81.9215 96.9363 82.0654 95.9601C83.6026 93.0571 85.5449 90.3717 87.8273 88.015ZM92.7971 94.4529C95.6723 91.4926 99.4705 90.109 103.082 88.2971C104.726 87.4786 106.364 86.5615 107.795 85.3784C108.206 85.0419 108.806 84.5369 109.281 83.964C109.48 87.6161 109.52 91.3037 109.099 94.9356C108.332 95.3774 107.645 96.0998 106.928 96.5662C105.842 97.2736 104.679 97.8469 103.493 98.3667C101.154 99.3854 98.7233 100.177 96.3239 101.051C92.2555 102.53 88.483 104.481 85.1261 107.159C87.2348 102.669 89.8099 98.4029 92.7971 94.4529ZM78.1775 110.605C78.3266 106.485 79.2051 102.429 80.8 98.629C80.8985 98.393 81.0103 98.1598 81.1168 97.9185C81.09 98.1766 81.0632 98.4348 81.034 98.6715C80.8574 100.196 80.7553 101.73 80.7571 103.264C80.7532 106.04 81.0639 108.806 81.6362 111.517C80.645 114.202 79.8104 116.934 79.1325 119.713C78.5366 116.72 78.0684 113.747 78.1775 110.605ZM91.5108 117.707C87.2312 119.496 82.9419 121.199 79.5611 124.351C79.5695 124.311 79.5751 124.284 79.5755 124.25C79.9431 122.314 80.3904 120.396 80.9147 118.507C80.9228 118.502 80.928 118.51 80.936 118.505C85.3189 115.801 90.4706 115.141 95.3525 113.82C97.4367 113.254 99.5036 112.573 101.412 111.561C101.693 111.412 101.998 111.247 102.307 111.07C99.3395 114.17 95.4772 116.054 91.5108 117.707ZM104.535 108.278C104.135 108.631 103.736 109.005 103.32 109.333C102.43 110.027 101.467 110.607 100.452 111.108C98.3573 112.15 96.1355 112.875 93.8777 113.473C89.4958 114.629 84.9918 115.51 81.081 117.918C81.5547 116.269 82.0735 114.636 82.664 113.025C83.2737 111.356 83.9552 109.709 84.687 108.087C88.5982 105.151 92.8917 103.067 97.56 101.541C99.9236 100.771 102.319 100.048 104.584 99.0207C105.681 98.524 106.74 97.9495 107.746 97.2945C108.093 97.0692 108.492 96.8205 108.866 96.5315C108.788 97.0289 108.711 97.5262 108.615 98.0127C107.928 101.658 106.602 105.202 104.535 108.278ZM108.599 72.0878C108.688 73.4049 108.743 74.7216 108.827 76.0306C108.948 78.1179 109.061 80.2105 109.187 82.3059C108.933 82.6548 108.76 83.0765 108.488 83.4145C107.917 84.1409 107.202 84.7324 106.456 85.2757C104.839 86.4542 103.06 87.3484 101.292 88.2588C98.993 89.4457 96.6357 90.6134 94.5779 92.1706C95.8171 90.6763 97.1091 89.2279 98.4249 87.7984C100.102 85.9732 102.037 84.1749 103.088 81.8979C103.306 81.4234 102.684 81.0836 102.321 81.354C100.49 82.6953 99.0095 84.5412 97.4728 86.1948C95.9711 87.8141 94.4932 89.4523 93.1155 91.1741C91.5866 93.0862 90.1661 95.0767 88.8435 97.1295C89.1677 94.7753 89.9764 92.4611 90.9192 90.3002C91.6052 88.7305 92.3362 87.1774 93.054 85.6214C93.4171 84.8235 93.7749 84.0175 94.1142 83.2007C94.2457 82.8745 94.3985 82.5458 94.5247 82.2115C95.8521 81.1871 97.1899 80.1787 98.5172 79.1543C100.524 77.6072 102.518 76.0572 104.407 74.3809C105.373 73.523 106.315 72.6462 107.222 71.7344C107.656 71.2916 108.109 70.8596 108.5 70.387C108.513 70.952 108.568 71.512 108.599 72.0878Z" fill="white"/>
</svg>
