<svg width="103" height="18" viewBox="0 0 103 18" fill="none" xmlns="http://www.w3.org/2000/svg">
<g clip-path="url(#clip0_41_2697)">
<path d="M17.1253 6.07142L11.8824 5.30945L9.53866 0.557999C9.47464 0.427907 9.36933 0.322594 9.23924 0.258581C8.91298 0.0975145 8.5165 0.231736 8.35337 0.557999L6.00965 5.30945L0.766737 6.07142C0.622191 6.09207 0.490034 6.16021 0.388851 6.26346C0.266527 6.38919 0.19912 6.55834 0.201444 6.73374C0.203767 6.90914 0.275629 7.07644 0.401241 7.19889L4.19456 10.8972L3.29837 16.1195C3.27735 16.241 3.2908 16.3659 3.33717 16.4801C3.38355 16.5944 3.46101 16.6933 3.56076 16.7658C3.66051 16.8382 3.77857 16.8813 3.90154 16.89C4.02451 16.8988 4.14748 16.8729 4.25651 16.8154L8.94601 14.3498L13.6355 16.8154C13.7635 16.8835 13.9122 16.9062 14.0547 16.8814C14.414 16.8195 14.6556 16.4788 14.5937 16.1195L13.6975 10.8972L17.4908 7.19889C17.594 7.0977 17.6622 6.96555 17.6828 6.821C17.7386 6.45963 17.4867 6.12511 17.1253 6.07142Z" fill="#FFA800"/>
</g>
<g clip-path="url(#clip1_41_2697)">
<path d="M38.4023 6.07142L33.1594 5.30945L30.8156 0.557999C30.7516 0.427907 30.6463 0.322594 30.5162 0.258581C30.19 0.0975145 29.7935 0.231736 29.6304 0.557999L27.2866 5.30945L22.0437 6.07142C21.8992 6.09207 21.767 6.16021 21.6658 6.26346C21.5435 6.38919 21.4761 6.55834 21.4784 6.73374C21.4807 6.90914 21.5526 7.07644 21.6782 7.19889L25.4715 10.8972L24.5753 16.1195C24.5543 16.241 24.5678 16.3659 24.6142 16.4801C24.6605 16.5944 24.738 16.6933 24.8377 16.7658C24.9375 16.8382 25.0555 16.8813 25.1785 16.89C25.3015 16.8988 25.4245 16.8729 25.5335 16.8154L30.223 14.3498L34.9125 16.8154C35.0405 16.8835 35.1892 16.9062 35.3317 16.8814C35.691 16.8195 35.9326 16.4788 35.8706 16.1195L34.9744 10.8972L38.7678 7.19889C38.871 7.0977 38.9392 6.96555 38.9598 6.821C39.0156 6.45963 38.7636 6.12511 38.4023 6.07142Z" fill="#FFA800"/>
</g>
<g clip-path="url(#clip2_41_2697)">
<path d="M59.6793 6.07142L54.4364 5.30945L52.0926 0.557999C52.0286 0.427907 51.9233 0.322594 51.7932 0.258581C51.467 0.0975145 51.0705 0.231736 50.9074 0.557999L48.5636 5.30945L43.3207 6.07142C43.1762 6.09207 43.044 6.16021 42.9428 6.26346C42.8205 6.38919 42.7531 6.55834 42.7554 6.73374C42.7578 6.90914 42.8296 7.07644 42.9552 7.19889L46.7485 10.8972L45.8524 16.1195C45.8313 16.241 45.8448 16.3659 45.8912 16.4801C45.9375 16.5944 46.015 16.6933 46.1147 16.7658C46.2145 16.8382 46.3326 16.8813 46.4555 16.89C46.5785 16.8988 46.7015 16.8729 46.8105 16.8154L51.5 14.3498L56.1895 16.8154C56.3175 16.8835 56.4662 16.9062 56.6087 16.8814C56.968 16.8195 57.2096 16.4788 57.1476 16.1195L56.2515 10.8972L60.0448 7.19889C60.148 7.0977 60.2162 6.96555 60.2368 6.821C60.2926 6.45963 60.0406 6.12511 59.6793 6.07142Z" fill="#FFA800"/>
</g>
<g clip-path="url(#clip3_41_2697)">
<path d="M80.9562 6.07142L75.7133 5.30945L73.3696 0.557999C73.3056 0.427907 73.2003 0.322594 73.0702 0.258581C72.7439 0.0975145 72.3474 0.231736 72.1843 0.557999L69.8406 5.30945L64.5977 6.07142C64.4531 6.09207 64.321 6.16021 64.2198 6.26346C64.0975 6.38919 64.0301 6.55834 64.0324 6.73374C64.0347 6.90914 64.1066 7.07644 64.2322 7.19889L68.0255 10.8972L67.1293 16.1195C67.1083 16.241 67.1217 16.3659 67.1681 16.4801C67.2145 16.5944 67.2919 16.6933 67.3917 16.7658C67.4914 16.8382 67.6095 16.8813 67.7325 16.89C67.8554 16.8988 67.9784 16.8729 68.0874 16.8154L72.7769 14.3498L77.4665 16.8154C77.5945 16.8835 77.7432 16.9062 77.8856 16.8814C78.2449 16.8195 78.4865 16.4788 78.4246 16.1195L77.5284 10.8972L81.3217 7.19889C81.425 7.0977 81.4931 6.96555 81.5138 6.821C81.5695 6.45963 81.3176 6.12511 80.9562 6.07142Z" fill="#FFA800"/>
</g>
<g clip-path="url(#clip4_41_2697)">
<path d="M102.233 6.07142L96.9903 5.30945L94.6466 0.557999C94.5826 0.427907 94.4773 0.322594 94.3472 0.258581C94.0209 0.0975145 93.6244 0.231736 93.4613 0.557999L91.1176 5.30945L85.8747 6.07142C85.7301 6.09207 85.598 6.16021 85.4968 6.26346C85.3745 6.38919 85.3071 6.55834 85.3094 6.73374C85.3117 6.90914 85.3836 7.07644 85.5092 7.19889L89.3025 10.8972L88.4063 16.1195C88.3853 16.241 88.3987 16.3659 88.4451 16.4801C88.4915 16.5944 88.5689 16.6933 88.6687 16.7658C88.7685 16.8382 88.8865 16.8813 89.0095 16.89C89.1325 16.8988 89.2554 16.8729 89.3644 16.8154L94.054 14.3498L98.7435 16.8154C98.8715 16.8835 99.0202 16.9062 99.1626 16.8814C99.522 16.8195 99.7635 16.4788 99.7016 16.1195L98.8054 10.8972L102.599 7.19889C102.702 7.0977 102.77 6.96555 102.791 6.821C102.847 6.45963 102.595 6.12511 102.233 6.07142Z" fill="#FFA800"/>
</g>
<defs>
<clipPath id="clip0_41_2697">
<rect width="17.892" height="17.0787" fill="white"/>
</clipPath>
<clipPath id="clip1_41_2697">
<rect width="17.892" height="17.0787" fill="white" transform="translate(21.277)"/>
</clipPath>
<clipPath id="clip2_41_2697">
<rect width="17.892" height="17.0787" fill="white" transform="translate(42.554)"/>
</clipPath>
<clipPath id="clip3_41_2697">
<rect width="17.892" height="17.0787" fill="white" transform="translate(63.8309)"/>
</clipPath>
<clipPath id="clip4_41_2697">
<rect width="17.892" height="17.0787" fill="white" transform="translate(85.1079)"/>
</clipPath>
</defs>
</svg>
