<svg width="42" height="42" viewBox="0 0 42 42" fill="none" xmlns="http://www.w3.org/2000/svg">
<g clip-path="url(#clip0_15_4723)">
<path d="M5.32 32.76L6.5716 33.3872L6.958 32.6116L6.44 31.92L5.32 32.76ZM9.24 36.68L10.08 35.56L9.3884 35.042L8.6128 35.4284L9.24 36.68ZM1.4 40.6L0.1484 39.9728C0.017325 40.2354 -0.0279073 40.5326 0.0190961 40.8223C0.0660995 41.112 0.202961 41.3796 0.410338 41.5873C0.617715 41.7949 0.885118 41.9322 1.17475 41.9796C1.46439 42.0271 1.76161 41.9823 2.0244 41.8516L1.4 40.6ZM12.6 12.6L11.8244 11.4352C11.6325 11.5629 11.475 11.7361 11.3661 11.9393C11.2572 12.1425 11.2001 12.3694 11.2 12.6H12.6ZM29.4 29.4V30.8C29.6306 30.7999 29.8575 30.7428 30.0607 30.6339C30.2639 30.525 30.4371 30.3675 30.5648 30.1756L29.4 29.4ZM17.5112 14.0728L18.8916 13.8404L17.5112 14.0728ZM17.9032 16.4136L16.5228 16.6432L17.9032 16.4136ZM16.6936 19.2052L17.4692 20.37L16.6936 19.2052ZM29.7976 28.8036L30.9624 29.5792L29.7976 28.8036ZM27.9272 24.4888L28.1596 23.1084L27.9272 24.4888ZM25.5864 24.0968L25.3568 25.4772L25.5864 24.0968ZM22.7948 25.3064L21.63 24.5308L22.7948 25.3064ZM0 21C0 25.7264 1.5624 30.0916 4.2 33.6L6.44 31.92C4.07177 28.7725 2.79391 24.9389 2.8 21H0ZM21 0C15.4305 0 10.089 2.21249 6.15076 6.15076C2.21249 10.089 0 15.4305 0 21H2.8C2.8 16.1731 4.71749 11.5438 8.13066 8.13066C11.5438 4.71749 16.1731 2.8 21 2.8V0ZM42 21C42 15.4305 39.7875 10.089 35.8492 6.15076C31.911 2.21249 26.5695 0 21 0V2.8C23.3901 2.8 25.7567 3.27076 27.9648 4.18539C30.173 5.10003 32.1793 6.44063 33.8693 8.13066C35.5594 9.82068 36.9 11.827 37.8146 14.0352C38.7292 16.2433 39.2 18.6099 39.2 21H42ZM21 42C26.5695 42 31.911 39.7875 35.8492 35.8492C39.7875 31.911 42 26.5695 42 21H39.2C39.2 23.3901 38.7292 25.7567 37.8146 27.9648C36.9 30.173 35.5594 32.1793 33.8693 33.8693C32.1793 35.5594 30.173 36.9 27.9648 37.8146C25.7567 38.7292 23.3901 39.2 21 39.2V42ZM8.4 37.8C12.0322 40.5317 16.4552 42.0061 21 42V39.2C17.061 39.2063 13.2274 37.9284 10.08 35.56L8.4 37.8ZM2.0244 41.8516L9.8644 37.9316L8.61 35.4284L0.77 39.3484L2.0244 41.8516ZM4.0656 32.1356L0.1456 39.9756L2.6488 41.2272L6.5688 33.3872L4.0656 32.1356ZM11.2 12.6V15.4H14V12.6H11.2ZM26.6 30.8H29.4V28H26.6V30.8ZM11.2 15.4C11.2 19.4843 12.8225 23.4014 15.7106 26.2894C18.5986 29.1775 22.5157 30.8 26.6 30.8V28C23.2583 28 20.0534 26.6725 17.6905 24.3095C15.3275 21.9466 14 18.7417 14 15.4H11.2ZM13.3756 13.7648L13.9748 13.3672L12.4208 11.0376L11.8244 11.4352L13.3756 13.7648ZM16.1308 14.3024L16.5228 16.6432L19.2836 16.184L18.8916 13.8404L16.1308 14.3024ZM15.918 18.0404L13.2244 19.8352L14.7756 22.1648L17.4692 20.37L15.918 18.0404ZM16.5228 16.6432C16.5675 16.9096 16.5342 17.1833 16.4269 17.4312C16.3196 17.6791 16.1429 17.8907 15.918 18.0404L17.4692 20.37C18.1428 19.9213 18.6724 19.2875 18.9943 18.5448C19.3162 17.8022 19.4167 16.9824 19.2836 16.184L16.5228 16.6432ZM13.9748 13.3672C14.1693 13.2379 14.3932 13.1593 14.6259 13.1385C14.8585 13.1178 15.0927 13.1557 15.307 13.2487C15.5214 13.3416 15.709 13.4867 15.8529 13.6708C15.9968 13.8548 16.0923 14.072 16.1308 14.3024L18.8916 13.8404C18.776 13.1489 18.4891 12.4974 18.0571 11.9452C17.6251 11.3931 17.0618 10.9578 16.4185 10.6792C15.7752 10.4005 15.0723 10.2873 14.374 10.3499C13.6758 10.4125 13.0043 10.649 12.4208 11.0376L13.9748 13.3672ZM30.5648 30.1756L30.9624 29.5792L28.6328 28.0252L28.2352 28.6244L30.5648 30.1756ZM28.1568 23.1084L25.816 22.7164L25.3568 25.48L27.6976 25.8692L28.1596 23.1084H28.1568ZM21.6328 24.5308L19.8352 27.2244L22.1648 28.7756L23.9596 26.082L21.63 24.5308H21.6328ZM25.816 22.7164C25.0176 22.5833 24.1978 22.6838 23.4552 23.0057C22.7125 23.3276 22.0787 23.8572 21.63 24.5308L23.9596 26.082C24.1093 25.8571 24.3209 25.6804 24.5688 25.5731C24.8167 25.4658 25.0904 25.4325 25.3568 25.4772L25.816 22.7164ZM30.9624 29.5792C31.351 28.9957 31.5875 28.3242 31.6501 27.626C31.7127 26.9277 31.5995 26.2248 31.3208 25.5815C31.0422 24.9382 30.6069 24.3749 30.0548 23.9429C29.5026 23.5109 28.8511 23.224 28.1596 23.1084L27.6976 25.8692C27.928 25.9077 28.1452 26.0032 28.3292 26.1471C28.5133 26.291 28.6584 26.4786 28.7513 26.693C28.8443 26.9073 28.8822 27.1415 28.8615 27.3741C28.8407 27.6068 28.7621 27.8307 28.6328 28.0252L30.9624 29.5792Z" fill="#34AA2F"/>
</g>
<defs>
<clipPath id="clip0_15_4723">
<rect width="42" height="42" fill="white"/>
</clipPath>
</defs>
</svg>
